<svg width="31" height="30" viewBox="0 0 31 30" fill="none" xmlns="http://www.w3.org/2000/svg">
<g id="ph:star-of-david">
<path id="Vector" d="M23.7056 14.8436L27.1602 8.81337C27.242 8.67173 27.2848 8.51098 27.2845 8.34742C27.2841 8.18386 27.2405 8.0233 27.1581 7.88202C27.0757 7.74074 26.9574 7.62376 26.8152 7.54294C26.673 7.46212 26.512 7.42032 26.3484 7.42179H19.4659L16.0275 1.39161C15.9464 1.24938 15.8292 1.13115 15.6876 1.0489C15.5461 0.966661 15.3853 0.92334 15.2216 0.92334C15.0578 0.92334 14.897 0.966661 14.7555 1.0489C14.6139 1.13115 14.4967 1.24938 14.4156 1.39161L10.9633 7.42179H4.0831C3.92004 7.42135 3.75974 7.46389 3.61836 7.54513C3.47697 7.62638 3.3595 7.74345 3.27777 7.88456C3.19605 8.02566 3.15296 8.18582 3.15285 8.34888C3.15274 8.51194 3.19561 8.67216 3.27714 8.81337L6.72363 14.8436L3.27714 20.8737C3.19536 21.0154 3.15247 21.1761 3.15283 21.3397C3.1532 21.5033 3.19679 21.6638 3.27921 21.8051C3.36162 21.9464 3.47992 22.0634 3.62212 22.1442C3.76431 22.225 3.92535 22.2668 4.0889 22.2653H10.9633L14.4098 28.2955C14.4909 28.4377 14.6081 28.556 14.7497 28.6382C14.8912 28.7205 15.052 28.7638 15.2158 28.7638C15.3795 28.7638 15.5403 28.7205 15.6818 28.6382C15.8234 28.556 15.9406 28.4377 16.0217 28.2955L19.4659 22.2653H26.3484C26.512 22.2668 26.673 22.225 26.8152 22.1442C26.9574 22.0634 27.0757 21.9464 27.1581 21.8051C27.2405 21.6638 27.2841 21.5033 27.2845 21.3397C27.2848 21.1761 27.242 21.0154 27.1602 20.8737L23.7056 14.8436ZM24.7492 9.27723L22.6375 12.9742L20.5258 9.27723H24.7492ZM21.5695 14.8436L18.3897 20.4099H12.0406L8.86087 14.8436L12.0406 9.27723H18.3897L21.5695 14.8436ZM15.2158 3.72482L17.3286 7.42179H13.1017L15.2158 3.72482ZM5.6811 9.27723H9.90339L7.79399 12.9742L5.6811 9.27723ZM5.6811 20.4006L7.79399 16.7129L9.90339 20.4099L5.6811 20.4006ZM15.2158 25.9623L13.1017 22.2653H17.3286L15.2158 25.9623ZM20.5258 20.4099L22.6375 16.7129L24.7492 20.4099H20.5258Z" fill="#181818"/>
</g>
</svg>
