<svg width="28" height="23" viewBox="0 0 28 23" fill="none" xmlns="http://www.w3.org/2000/svg">
<path id="Vector" d="M27.5 12.88C27.5 13.124 27.3946 13.358 27.2071 13.5305C27.0196 13.7031 26.7652 13.8 26.5 13.8C26.2348 13.8 25.9804 13.7031 25.7929 13.5305C25.6054 13.358 25.5 13.124 25.5 12.88C25.4964 9.95304 24.2309 7.14691 21.9813 5.07724C19.7316 3.00756 16.6815 1.84335 13.5 1.84C10.5836 1.84304 7.78766 2.91023 5.72548 4.80744C3.6633 6.70465 2.50331 9.27694 2.5 11.96C2.50298 14.3992 3.5575 16.7376 5.43222 18.4624C7.30694 20.1871 9.84875 21.1573 12.5 21.16C14.8861 21.1576 17.1738 20.2844 18.861 18.7322C20.5483 17.1799 21.4974 15.0752 21.5 12.88C21.4977 10.9287 20.6541 9.05785 19.1543 7.67805C17.6545 6.29824 15.621 5.52213 13.5 5.52C11.6441 5.52183 9.86477 6.20091 8.55245 7.40825C7.24012 8.61559 6.50199 10.2526 6.5 11.96C6.50165 13.4235 7.13433 14.8267 8.25919 15.8615C9.38405 16.8964 10.9092 17.4785 12.5 17.48C13.1566 17.48 13.8068 17.361 14.4134 17.1298C15.02 16.8987 15.5712 16.5598 16.0355 16.1327C16.4998 15.7055 16.8681 15.1984 17.1194 14.6403C17.3707 14.0822 17.5 13.4841 17.5 12.88C17.5 11.904 17.0786 10.968 16.3284 10.2778C15.5783 9.58771 14.5609 9.2 13.5 9.2C12.7044 9.2 11.9413 9.49078 11.3787 10.0084C10.8161 10.526 10.5 11.228 10.5 11.96C10.5 12.448 10.7107 12.916 11.0858 13.2611C11.4609 13.6061 11.9696 13.8 12.5 13.8C12.7652 13.8 13.0196 13.7031 13.2071 13.5305C13.3946 13.358 13.5 13.124 13.5 12.88C13.2348 12.88 12.9804 12.7831 12.7929 12.6105C12.6054 12.438 12.5 12.204 12.5 11.96C12.5 11.716 12.6054 11.482 12.7929 11.3095C12.9804 11.1369 13.2348 11.04 13.5 11.04C14.0304 11.04 14.5391 11.2339 14.9142 11.5789C15.2893 11.924 15.5 12.392 15.5 12.88C15.5 13.612 15.1839 14.314 14.6213 14.8316C14.0587 15.3492 13.2956 15.64 12.5 15.64C11.4391 15.64 10.4217 15.2523 9.67157 14.5622C8.92143 13.872 8.5 12.936 8.5 11.96C8.5 10.74 9.02678 9.56998 9.96447 8.70731C10.9021 7.84464 12.1739 7.36 13.5 7.36C15.0908 7.36152 16.616 7.94358 17.7408 8.97845C18.8657 10.0133 19.4983 11.4165 19.5 12.88C19.498 14.5874 18.7599 16.2244 17.4476 17.4318C16.1352 18.6391 14.3559 19.3182 12.5 19.32C10.379 19.3179 8.34549 18.5418 6.8457 17.162C5.34591 15.7821 4.50232 13.9113 4.5 11.96C4.50265 9.76476 5.45171 7.66012 7.13896 6.10785C8.82622 4.55557 11.1139 3.68244 13.5 3.68C16.1513 3.68274 18.6931 4.6529 20.5678 6.37764C22.4425 8.10238 23.497 10.4408 23.5 12.88C23.4967 15.5631 22.3367 18.1354 20.2745 20.0326C18.2123 21.9298 15.4164 22.997 12.5 23C9.31852 22.9967 6.26839 21.8324 4.01874 19.7628C1.76909 17.6931 0.503639 14.887 0.5 11.96C0.50364 8.78904 1.87445 5.74891 4.31163 3.5067C6.74882 1.26449 10.0533 0.00334859 13.5 0C17.2118 0.00365292 20.7705 1.36182 23.3951 3.7765C26.0198 6.19118 27.496 9.46513 27.5 12.88Z" fill="#181818"/>
</svg>
