<svg width="30" height="25" viewBox="0 0 30 25" fill="none" xmlns="http://www.w3.org/2000/svg">
<g id="Group">
<path id="Vector" fill-rule="evenodd" clip-rule="evenodd" d="M22.4796 5.35377L21.1229 0.722656L19.7662 5.35377L17.1416 6.6713L19.7778 7.99468L21.1229 12.0461L22.468 7.99468L25.1043 6.6713L22.4796 5.35377ZM20.7298 6.2321L21.1229 4.89022L21.516 6.2321L22.391 6.6713L21.5276 7.10472L21.1229 8.32357L20.7182 7.10472L19.8549 6.6713L20.7298 6.2321Z" fill="#181818"/>
<path id="Vector_2" d="M12.0818 6.80321L12.6651 4.34375L13.2484 6.80321L14.9982 7.41808L13.2484 8.03294L12.6651 10.4924L12.0818 8.03294L10.332 7.41808L12.0818 6.80321Z" fill="#181818"/>
<path id="Vector_3" fill-rule="evenodd" clip-rule="evenodd" d="M6.13818 23.0523V23.2662C6.13818 24.2237 5.41698 25 4.52727 25H2.11091C1.22123 25 0.5 24.2237 0.5 23.2662V13.7344C0.5 12.7769 1.22123 12.0006 2.11091 12.0006H4.52727C5.28923 12.0006 5.92763 12.57 6.09525 13.335C7.16199 12.9213 8.40795 12.4288 8.78917 12.2417C9.11296 12.083 9.48686 12.0291 9.79752 12.0097C10.1242 11.9894 10.4631 12.0035 10.7597 12.0282C11.0589 12.0531 11.3304 12.0903 11.5264 12.1209C11.6249 12.1364 11.7054 12.1503 11.7622 12.1606C11.7906 12.1658 11.8132 12.1699 11.8291 12.173L11.848 12.1767L11.8536 12.1778L11.8565 12.1783L11.8709 12.1813L17.2584 13.482L17.2921 13.4937L17.3013 13.4967L17.3384 13.5089C17.3723 13.5199 17.4238 13.5361 17.4902 13.5559C17.6232 13.5956 17.8144 13.6491 18.0423 13.7026C18.5054 13.8113 19.0887 13.9128 19.6326 13.9128C20.1351 13.9128 20.655 14.1144 20.9328 14.6621C21.1715 15.1324 21.1159 15.6488 21.0266 16.0064C20.9154 16.4515 20.685 16.9199 20.3921 17.3178C20.7874 17.1573 21.2194 16.9673 21.6832 16.7625L21.7824 16.7187C23.0896 16.1413 24.6397 15.4567 26.007 15.2133C27.5693 14.9351 28.7064 15.5455 29.2219 16.6284C29.6808 17.5923 29.5742 18.8575 28.8836 19.6197C28.7103 19.811 28.4462 20.0117 28.181 20.1969C27.8978 20.3946 27.5489 20.6179 27.1613 20.8545C26.385 21.3285 25.4241 21.8732 24.4592 22.3998C22.5487 23.4427 20.546 24.4569 19.9096 24.7077C19.1721 24.9984 18.38 25.0259 17.6182 24.9837C17.2032 24.9607 16.7211 24.9091 16.242 24.8578C15.8958 24.8208 15.5512 24.7839 15.2346 24.7581C13.6818 24.6315 12.4901 24.2236 11.3923 23.8479L11.2589 23.8022C10.1251 23.4149 9.07036 23.0713 7.67289 23.0107C7.35337 22.9969 6.71537 23.0221 6.13818 23.0523ZM9.4573 13.8194C9.50893 13.794 9.64585 13.7559 9.89039 13.7406C10.1188 13.7264 10.3795 13.7354 10.6354 13.7568C10.8888 13.7779 11.1231 13.8098 11.2945 13.8366C11.3798 13.85 11.4485 13.8619 11.4949 13.8703C11.5182 13.8746 11.5358 13.8779 11.5471 13.88L11.5489 13.8804L16.8387 15.1576L16.875 15.1695C16.919 15.1837 16.9816 15.2033 17.0599 15.2268C17.2162 15.2734 17.4369 15.3349 17.6989 15.3965C18.1703 15.5072 18.8018 15.624 19.4455 15.6437C19.3996 15.7839 19.3219 15.9494 19.2165 16.1142C19.088 16.3153 18.9468 16.4708 18.8309 16.5599C18.4953 16.8178 18.2245 16.9258 18.0601 16.9717C17.9769 16.995 17.9184 17.003 17.8894 17.0058L17.8787 17.0067L17.8724 17.0071L13.5536 16.9509L13.3994 18.6706L13.5438 17.8177L13.4002 18.6707L13.4431 18.6791L13.5659 18.7028C13.6722 18.7234 13.8254 18.7527 14.0136 18.7881C14.3897 18.859 14.9064 18.9546 15.4682 19.053C16.5753 19.2472 17.9096 19.4624 18.6666 19.5115C19.1894 19.5455 19.7984 19.3728 20.3647 19.1693C20.9556 18.957 21.6232 18.663 22.2945 18.3665C23.6778 17.7559 25.0862 17.1345 26.2699 16.9239C27.2931 16.7416 27.6573 17.144 27.7882 17.4189C27.9757 17.8129 27.8738 18.2509 27.7303 18.4093C27.6951 18.4481 27.5683 18.558 27.3044 18.7423C27.0585 18.9139 26.7401 19.1185 26.3666 19.3465C25.6207 19.8018 24.6842 20.333 23.7306 20.8536C21.8043 21.905 19.887 22.8702 19.3556 23.0797C18.9253 23.2493 18.3936 23.2906 17.701 23.2522C17.292 23.2295 16.9039 23.1871 16.4808 23.1407C16.1388 23.1032 15.7738 23.0634 15.3563 23.0293C13.9936 22.9182 12.9576 22.5639 11.8475 22.1843L11.7463 22.1497C10.5964 21.7569 9.36604 21.3489 7.73773 21.2783C7.37117 21.2625 6.71859 21.2868 6.13818 21.3164V15.1607C7.27025 14.7246 8.94688 14.0698 9.4573 13.8194ZM11.7089 13.0306L11.8565 12.1783C11.8567 12.1784 11.8565 12.1783 11.7089 13.0306ZM4.52727 13.7344H2.11091V23.2662H4.52727V13.7344Z" fill="#181818"/>
</g>
</svg>
