<svg width="43" height="22" viewBox="0 0 43 22" fill="none" xmlns="http://www.w3.org/2000/svg">
<g id="Group 127">
<g id="Clip path group">
<mask id="mask0_109_346" style="mask-type:luminance" maskUnits="userSpaceOnUse" x="0" y="0" width="43" height="22">
<g id="notoV1Rainbow1">
<path id="Vector" d="M0.5 21.06C0.5 9.4299 9.9299 0 21.56 0C33.1901 0 42.62 9.4299 42.62 21.06H0.5Z" fill="white"/>
</g>
</mask>
<g mask="url(#mask0_109_346)">
<g id="Group">
<path id="Vector_2" d="M21.5601 41.6523C10.2066 41.6523 0.967773 32.4135 0.967773 21.0601C0.967773 9.70664 10.2066 0.467773 21.5601 0.467773C32.9135 0.467773 42.1523 9.70334 42.1523 21.0601C42.1523 32.4135 32.9135 41.6523 21.5601 41.6523ZM21.5601 2.24308C11.1849 2.24308 2.73979 10.6849 2.73979 21.0601C2.73979 31.4385 11.1816 39.8803 21.5601 39.8803C31.9353 39.8803 40.377 31.4385 40.377 21.0601C40.377 10.6849 31.9353 2.24308 21.5601 2.24308Z" fill="#181818"/>
<path id="Vector_3" d="M21.56 38.991C11.6756 38.991 3.63232 30.9477 3.63232 21.06C3.63232 11.1756 11.6756 3.13232 21.56 3.13232C31.4444 3.13232 39.4877 11.1756 39.4877 21.06C39.4877 30.9477 31.4444 38.991 21.56 38.991ZM21.56 4.90434C12.6538 4.90434 5.40434 12.1505 5.40434 21.06C5.40434 29.9695 12.6505 37.2157 21.56 37.2157C30.4662 37.2157 37.7124 29.9695 37.7124 21.06C37.7157 12.1538 30.4662 4.90434 21.56 4.90434Z" fill="#181818"/>
<path id="Vector_4" d="M21.5599 36.3262C13.1445 36.3262 6.29688 29.4785 6.29688 21.0598C6.29688 12.6411 13.1445 5.79346 21.5599 5.79346C29.9754 5.79346 36.823 12.6411 36.823 21.0598C36.823 29.4785 29.9754 36.3262 21.5599 36.3262ZM21.5599 7.56877C14.1194 7.56877 8.06889 13.6226 8.06889 21.0598C8.06889 28.5003 14.1194 34.5509 21.5599 34.5509C28.9971 34.5509 35.051 28.497 35.051 21.0598C35.051 13.6193 28.9971 7.56877 21.5599 7.56877Z" fill="#181818"/>
<path id="Vector_5" d="M21.56 33.662C14.6103 33.662 8.95825 28.0067 8.95825 21.0602C8.95825 14.1105 14.6103 8.4585 21.56 8.4585C28.5064 8.4585 34.1617 14.1138 34.1617 21.0602C34.1617 28.01 28.5097 33.662 21.56 33.662ZM21.56 10.2305C15.5885 10.2305 10.7336 15.0887 10.7336 21.0602C10.7336 27.0317 15.5885 31.89 21.56 31.89C27.5315 31.89 32.3864 27.0317 32.3864 21.0602C32.3864 15.0887 27.5315 10.2305 21.56 10.2305Z" fill="#181818"/>
<path id="Vector_6" d="M21.5601 31.0005C16.0793 31.0005 11.6196 26.5408 11.6196 21.0601C11.6196 15.5793 16.0793 11.1196 21.5601 11.1196C27.0408 11.1196 31.4972 15.5793 31.4972 21.0601C31.4972 26.5408 27.0408 31.0005 21.5601 31.0005ZM21.5601 12.8949C17.0575 12.8949 13.3916 16.5575 13.3916 21.0601C13.3916 25.5626 17.0543 29.2252 21.5601 29.2252C26.0626 29.2252 29.7252 25.5626 29.7252 21.0601C29.7252 16.5575 26.0626 12.8949 21.5601 12.8949Z" fill="#181818"/>
</g>
</g>
</g>
</g>
</svg>
