<svg width="13" height="17" viewBox="0 0 13 17" fill="none" xmlns="http://www.w3.org/2000/svg">
<path fill-rule="evenodd" clip-rule="evenodd" d="M2.56137 2.61388C3.60643 1.54463 5.02325 0.944457 6.5 0.944457C7.97675 0.944457 9.39357 1.54463 10.4386 2.61388C11.4838 3.68319 12.0714 5.13407 12.0714 6.64751C12.0714 9.25733 10.6489 11.619 9.16663 13.3631C8.43106 14.2286 7.69428 14.926 7.14136 15.4068C6.77235 15.7277 6.22765 15.7277 5.85864 15.4068C5.30572 14.926 4.56894 14.2286 3.83337 13.3631C2.3511 11.619 0.928571 9.25733 0.928571 6.64751C0.928571 5.13407 1.51622 3.68319 2.56137 2.61388ZM6.23239 16.9139C6.23257 16.914 6.23271 16.9141 6.5 16.528C6.76729 16.9141 6.76743 16.914 6.76761 16.9139C6.6073 17.0287 6.3927 17.0287 6.23239 16.9139ZM6.23239 16.9139L6.5 16.528L6.76761 16.9139L6.76929 16.9127L6.77351 16.9097L6.78827 16.8989C6.80095 16.8896 6.8192 16.8762 6.8426 16.8587C6.8894 16.8238 6.95695 16.7725 7.04233 16.7058C7.213 16.5723 7.45508 16.3766 7.7448 16.1247C8.32358 15.6213 9.09573 14.8907 9.86909 13.9807C11.4047 12.174 13 9.59545 13 6.64751C13 4.88539 12.3158 3.19486 11.0972 1.94799C9.87838 0.701042 8.22477 0 6.5 0C4.77522 0 3.12162 0.701042 1.90283 1.94799C0.684171 3.19486 0 4.88539 0 6.64751C0 9.59545 1.59533 12.174 3.13091 13.9807C3.90427 14.8907 4.67642 15.6213 5.2552 16.1247C5.54492 16.3766 5.787 16.5723 5.95767 16.7058C6.04305 16.7725 6.1106 16.8238 6.1574 16.8587C6.1808 16.8762 6.19905 16.8896 6.21173 16.8989L6.22649 16.9097L6.23071 16.9127L6.23239 16.9139ZM4.64286 6.6112C4.64286 5.568 5.47435 4.72228 6.5 4.72228C7.52565 4.72228 8.35714 5.568 8.35714 6.6112C8.35714 7.6544 7.52565 8.50011 6.5 8.50011C5.47435 8.50011 4.64286 7.6544 4.64286 6.6112ZM6.5 3.77783C4.9615 3.77783 3.71429 5.04638 3.71429 6.6112C3.71429 8.17602 4.9615 9.44457 6.5 9.44457C8.0385 9.44457 9.28571 8.17602 9.28571 6.6112C9.28571 5.04638 8.0385 3.77783 6.5 3.77783Z" fill="black"/>
</svg>
