<svg width="13" height="13" viewBox="0 0 13 13" fill="none" xmlns="http://www.w3.org/2000/svg">
<path fill-rule="evenodd" clip-rule="evenodd" d="M1.06209 0.764706C0.899401 0.764706 0.764706 0.899401 0.764706 1.06209C0.764706 7.23366 5.76634 12.2353 11.9379 12.2353C12.1006 12.2353 12.2353 12.1006 12.2353 11.9379V9.56563C12.2353 9.40294 12.1006 9.26824 11.9379 9.26824C11.0542 9.26824 10.1912 9.12573 9.39131 8.86149L9.38722 8.86015C9.28789 8.82608 9.1689 8.85132 9.08826 8.93192L7.59288 10.4273C7.47552 10.5447 7.29584 10.573 7.14813 10.4973C5.15374 9.47543 3.51803 7.84726 2.50223 5.85092C2.42715 5.70335 2.45557 5.52421 2.57265 5.40713L4.06808 3.91174C4.1527 3.82709 4.17724 3.71295 4.14425 3.60551C3.88073 2.80666 3.73857 1.95161 3.73857 1.06209C3.73857 0.899401 3.60387 0.764706 3.44118 0.764706H1.06209ZM0 1.06209C0 0.477069 0.477069 0 1.06209 0H3.44118C4.02621 0 4.50328 0.477069 4.50328 1.06209C4.50328 1.87074 4.63263 2.64596 4.87141 3.36884L4.87229 3.37147L4.87313 3.37411C4.98871 3.7419 4.90425 4.15698 4.60881 4.45246C3.84031 5.22096 3.64687 6.4258 4.33551 7.26659C4.75387 7.77739 5.22294 8.24561 5.73478 8.66388C6.57561 9.35101 7.77971 9.15904 8.54754 8.39119C8.83339 8.10535 9.25703 8.00808 9.63296 8.13597C10.3552 8.37433 11.1365 8.50353 11.9379 8.50353C12.5229 8.50353 13 8.98059 13 9.56563V11.9379C13 12.5229 12.5229 13 11.9379 13C5.34399 13 0 7.65601 0 1.06209Z" fill="black"/>
</svg>
