<svg width="49" height="22" viewBox="0 0 49 22" fill="none" xmlns="http://www.w3.org/2000/svg">
<g id="Frame 122">
<path id="Vector" d="M47.4115 14.2325C47.2911 14.1924 43.0238 11.5271 41.9754 9.80026C40.8665 7.96675 39.769 6.12644 38.6829 4.27941C38.3054 3.63826 37.7183 3.14696 37.0207 2.88842L32.4926 1.20318C31.6912 0.905923 30.8051 0.935817 30.0256 1.28641C29.0163 1.72751 28.0388 2.23823 27.1003 2.81486C26.1863 3.40484 25.2307 5.44451 24.5642 6.4766C24.5087 6.56357 24.4837 6.66656 24.4932 6.76931C24.5027 6.87206 24.5461 6.96872 24.6167 7.04403C24.6872 7.11934 24.7808 7.16902 24.8828 7.18521C24.9847 7.2014 25.0891 7.18319 25.1795 7.13346L28.5284 4.56028C28.5284 4.56028 31.8662 3.16632 33.3946 6.14743C35.0628 9.4005 34.0819 12.1245 29.5865 14.3455C25.9025 16.166 24.8458 17.6669 24.9053 18.702C24.9231 19.0282 25.849 19.9518 26.1484 19.8203C27.1196 19.3938 30.6119 18.0191 32.1783 18.2599C33.6896 18.5965 35.2649 18.5051 36.7272 17.9939C37.4735 17.6383 38.301 17.4874 39.1248 17.5566C39.9486 17.6258 40.7393 17.9126 41.4158 18.3877L44.2379 20.4556M1.5 14.2325C1.62037 14.1924 5.8877 11.5271 6.93614 9.80026C8.1005 7.88319 9.46994 5.56711 10.2286 4.27941C10.6061 3.63826 11.1931 3.14696 11.8908 2.88842L16.4197 1.20318C17.221 0.905923 18.1071 0.935817 18.8866 1.28641C19.8957 1.72754 20.8729 2.23826 21.8112 2.81486C22.7252 3.40484 23.6807 5.44451 24.3473 6.4766C24.4028 6.56357 24.4278 6.66656 24.4183 6.76931C24.4088 6.87206 24.3653 6.96872 24.2948 7.04403C24.2243 7.11934 24.1307 7.16902 24.0287 7.18521C23.9268 7.2014 23.8224 7.18319 23.732 7.13346L20.3831 4.56028C20.3831 4.56028 17.0453 3.16706 15.5169 6.14743C13.8487 9.4005 14.8295 12.1245 19.325 14.3462C23.009 16.1667 24.0656 17.6662 24.0062 18.702C23.9884 19.0282 23.0625 19.9518 22.7631 19.8203C21.7919 19.3938 18.2996 18.0191 16.7332 18.2599C15.2217 18.5961 13.6463 18.504 12.1843 17.9939C11.4379 17.6383 10.6105 17.4874 9.78671 17.5566C8.96289 17.6258 8.17224 17.9126 7.49566 18.3877L4.67356 20.4556" stroke="#181818" stroke-width="1.4861" stroke-linecap="round" stroke-linejoin="round"/>
</g>
</svg>
